<svg width="150" height="40" viewBox="0 0 997 129" fill="none" xmlns="http://www.w3.org/2000/svg">
<path d="M49.757 104.792C42.6743 104.792 36.1037 103.683 30.045 101.464C24.0717 99.16 18.8663 95.9173 14.429 91.736C10.077 87.5547 6.66367 82.648 4.189 77.016C1.71433 71.2987 0.477 65.0267 0.477 58.2C0.477 51.3733 1.71433 45.144 4.189 39.512C6.66367 33.7947 10.077 28.8453 14.429 24.664C18.8663 20.4827 24.0717 17.2827 30.045 15.064C36.1037 12.76 42.6743 11.608 49.757 11.608C58.0343 11.608 65.4157 13.0587 71.901 15.96C78.4717 18.8613 83.933 23.0427 88.285 28.504L72.157 43.096C69.2557 39.6827 66.0557 37.08 62.557 35.288C59.1437 33.496 55.3037 32.6 51.037 32.6C47.3677 32.6 43.997 33.1973 40.925 34.392C37.853 35.5867 35.2077 37.336 32.989 39.64C30.8557 41.8587 29.149 44.5467 27.869 47.704C26.6743 50.8613 26.077 54.36 26.077 58.2C26.077 62.04 26.6743 65.5387 27.869 68.696C29.149 71.8533 30.8557 74.584 32.989 76.888C35.2077 79.1067 37.853 80.8133 40.925 82.008C43.997 83.2027 47.3677 83.8 51.037 83.8C55.3037 83.8 59.1437 82.904 62.557 81.112C66.0557 79.32 69.2557 76.7173 72.157 73.304L88.285 87.896C83.933 93.272 78.4717 97.4533 71.901 100.44C65.4157 103.341 58.0343 104.792 49.757 104.792ZM110.337 128.984C106.668 128.984 102.956 128.387 99.201 127.192C95.5317 126.083 92.545 124.589 90.241 122.712L98.689 105.688C100.14 106.968 101.804 107.949 103.681 108.632C105.644 109.4 107.564 109.784 109.441 109.784C112.086 109.784 114.177 109.187 115.713 107.992C117.249 106.797 118.572 104.92 119.681 102.36L122.881 94.296L124.801 91.864L148.353 33.624H171.521L141.569 105.816C139.18 111.789 136.406 116.44 133.249 119.768C130.177 123.181 126.721 125.571 122.881 126.936C119.126 128.301 114.945 128.984 110.337 128.984ZM119.809 105.944L89.217 33.624H114.177L136.705 89.688L119.809 105.944ZM221.456 104.152C215.227 104.152 210.021 102.872 205.84 100.312C201.744 97.752 198.672 93.8267 196.624 88.536C194.576 83.2453 193.552 76.4613 193.552 68.184C193.552 60.0773 194.619 53.3787 196.752 48.088C198.971 42.7973 202.171 38.872 206.352 36.312C210.533 33.752 215.568 32.472 221.456 32.472C227.771 32.472 233.488 33.9227 238.608 36.824C243.813 39.7253 247.909 43.864 250.896 49.24C253.968 54.5307 255.504 60.8453 255.504 68.184C255.504 75.608 253.968 82.008 250.896 87.384C247.909 92.6747 243.813 96.8133 238.608 99.8C233.488 102.701 227.771 104.152 221.456 104.152ZM177.808 103V8.02399H202.128V45.272L200.848 68.184L200.976 91.096V103H177.808ZM216.336 84.824C219.067 84.824 221.499 84.184 223.632 82.904C225.851 81.624 227.6 79.7467 228.88 77.272C230.245 74.712 230.928 71.6827 230.928 68.184C230.928 64.6853 230.245 61.7413 228.88 59.352C227.6 56.8773 225.851 55 223.632 53.72C221.499 52.44 219.067 51.8 216.336 51.8C213.605 51.8 211.131 52.44 208.912 53.72C206.779 55 205.029 56.8773 203.664 59.352C202.384 61.7413 201.744 64.6853 201.744 68.184C201.744 71.6827 202.384 74.712 203.664 77.272C205.029 79.7467 206.779 81.624 208.912 82.904C211.131 84.184 213.605 84.824 216.336 84.824ZM303.16 104.152C294.968 104.152 287.8 102.616 281.656 99.544C275.597 96.3867 270.861 92.12 267.448 86.744C264.12 81.2827 262.456 75.096 262.456 68.184C262.456 61.272 264.077 55.128 267.32 49.752C270.648 44.2907 275.213 40.0667 281.016 37.08C286.819 34.008 293.347 32.472 300.6 32.472C307.427 32.472 313.656 33.88 319.288 36.696C324.92 39.4267 329.4 43.48 332.728 48.856C336.056 54.232 337.72 60.76 337.72 68.44C337.72 69.2933 337.677 70.2747 337.592 71.384C337.507 72.4933 337.421 73.5173 337.336 74.456H282.424V61.656H324.408L315.192 65.24C315.277 62.0827 314.68 59.352 313.4 57.048C312.205 54.744 310.499 52.952 308.28 51.672C306.147 50.392 303.629 49.752 300.728 49.752C297.827 49.752 295.267 50.392 293.048 51.672C290.915 52.952 289.251 54.7867 288.056 57.176C286.861 59.48 286.264 62.2107 286.264 65.368V69.08C286.264 72.4933 286.947 75.4373 288.312 77.912C289.763 80.3867 291.811 82.3067 294.456 83.672C297.101 84.952 300.259 85.592 303.928 85.592C307.341 85.592 310.243 85.1227 312.632 84.184C315.107 83.16 317.539 81.624 319.928 79.576L332.728 92.888C329.4 96.5573 325.304 99.3733 320.44 101.336C315.576 103.213 309.816 104.152 303.16 104.152ZM348.933 103V33.624H372.101V53.848L368.645 48.088C370.693 42.8827 374.021 39 378.629 36.44C383.237 33.7947 388.826 32.472 395.397 32.472V54.36C394.288 54.1893 393.306 54.104 392.453 54.104C391.685 54.0187 390.832 53.976 389.893 53.976C384.944 53.976 380.933 55.3413 377.861 58.072C374.789 60.7173 373.253 65.0693 373.253 71.128V103H348.933ZM449.257 104.792C442.174 104.792 435.604 103.683 429.545 101.464C423.572 99.16 418.366 95.9173 413.929 91.736C409.577 87.5547 406.164 82.648 403.689 77.016C401.214 71.2987 399.977 65.0267 399.977 58.2C399.977 51.3733 401.214 45.144 403.689 39.512C406.164 33.7947 409.577 28.8453 413.929 24.664C418.366 20.4827 423.572 17.2827 429.545 15.064C435.604 12.76 442.174 11.608 449.257 11.608C457.534 11.608 464.916 13.0587 471.401 15.96C477.972 18.8613 483.433 23.0427 487.785 28.504L471.657 43.096C468.756 39.6827 465.556 37.08 462.057 35.288C458.644 33.496 454.804 32.6 450.537 32.6C446.868 32.6 443.497 33.1973 440.425 34.392C437.353 35.5867 434.708 37.336 432.489 39.64C430.356 41.8587 428.649 44.5467 427.369 47.704C426.174 50.8613 425.577 54.36 425.577 58.2C425.577 62.04 426.174 65.5387 427.369 68.696C428.649 71.8533 430.356 74.584 432.489 76.888C434.708 79.1067 437.353 80.8133 440.425 82.008C443.497 83.2027 446.868 83.8 450.537 83.8C454.804 83.8 458.644 82.904 462.057 81.112C465.556 79.32 468.756 76.7173 471.657 73.304L487.785 87.896C483.433 93.272 477.972 97.4533 471.401 100.44C464.916 103.341 457.534 104.792 449.257 104.792ZM497.933 103V33.624H521.101V53.848L517.645 48.088C519.693 42.8827 523.021 39 527.629 36.44C532.237 33.7947 537.826 32.472 544.397 32.472V54.36C543.288 54.1893 542.306 54.104 541.453 54.104C540.685 54.0187 539.832 53.976 538.893 53.976C533.944 53.976 529.933 55.3413 526.861 58.072C523.789 60.7173 522.253 65.0693 522.253 71.128V103H497.933ZM590.16 104.152C581.968 104.152 574.8 102.616 568.656 99.544C562.597 96.3867 557.861 92.12 554.448 86.744C551.12 81.2827 549.456 75.096 549.456 68.184C549.456 61.272 551.077 55.128 554.32 49.752C557.648 44.2907 562.213 40.0667 568.016 37.08C573.819 34.008 580.347 32.472 587.6 32.472C594.427 32.472 600.656 33.88 606.288 36.696C611.92 39.4267 616.4 43.48 619.728 48.856C623.056 54.232 624.72 60.76 624.72 68.44C624.72 69.2933 624.677 70.2747 624.592 71.384C624.507 72.4933 624.421 73.5173 624.336 74.456H569.424V61.656H611.408L602.192 65.24C602.277 62.0827 601.68 59.352 600.4 57.048C599.205 54.744 597.499 52.952 595.28 51.672C593.147 50.392 590.629 49.752 587.728 49.752C584.827 49.752 582.267 50.392 580.048 51.672C577.915 52.952 576.251 54.7867 575.056 57.176C573.861 59.48 573.264 62.2107 573.264 65.368V69.08C573.264 72.4933 573.947 75.4373 575.312 77.912C576.763 80.3867 578.811 82.3067 581.456 83.672C584.101 84.952 587.259 85.592 590.928 85.592C594.341 85.592 597.243 85.1227 599.632 84.184C602.107 83.16 604.539 81.624 606.928 79.576L619.728 92.888C616.4 96.5573 612.304 99.3733 607.44 101.336C602.576 103.213 596.816 104.152 590.16 104.152ZM676.426 103V90.072L674.762 86.872V63.064C674.762 59.224 673.567 56.28 671.178 54.232C668.874 52.0987 665.162 51.032 660.042 51.032C656.714 51.032 653.343 51.5867 649.93 52.696C646.517 53.72 643.615 55.1707 641.226 57.048L633.034 40.536C636.959 37.976 641.653 36.0133 647.114 34.648C652.661 33.1973 658.165 32.472 663.626 32.472C674.89 32.472 683.594 35.0747 689.738 40.28C695.967 45.4 699.082 53.464 699.082 64.472V103H676.426ZM655.946 104.152C650.399 104.152 645.706 103.213 641.866 101.336C638.026 99.4587 635.082 96.8987 633.034 93.656C631.071 90.4133 630.09 86.7867 630.09 82.776C630.09 78.5093 631.157 74.84 633.29 71.768C635.509 68.6107 638.879 66.2213 643.402 64.6C647.925 62.8933 653.77 62.04 660.938 62.04H677.322V74.712H664.266C660.341 74.712 657.567 75.352 655.946 76.632C654.41 77.912 653.642 79.6187 653.642 81.752C653.642 83.8853 654.453 85.592 656.074 86.872C657.695 88.152 659.914 88.792 662.73 88.792C665.375 88.792 667.765 88.152 669.898 86.872C672.117 85.5067 673.738 83.4587 674.762 80.728L678.09 89.688C676.81 94.4667 674.293 98.0933 670.538 100.568C666.869 102.957 662.005 104.152 655.946 104.152ZM745.409 104.152C736.534 104.152 729.622 101.976 724.673 97.624C719.724 93.1867 717.249 86.5307 717.249 77.656V18.136H741.569V77.4C741.569 79.8747 742.252 81.8373 743.617 83.288C744.982 84.6533 746.732 85.336 748.865 85.336C751.766 85.336 754.241 84.6107 756.289 83.16L762.305 100.184C760.257 101.549 757.74 102.531 754.753 103.128C751.766 103.811 748.652 104.152 745.409 104.152ZM707.137 54.36V36.184H757.441V54.36H707.137ZM771.683 103V33.624H796.003V103H771.683ZM783.843 25.944C779.406 25.944 775.822 24.7067 773.091 22.232C770.36 19.7573 768.995 16.6853 768.995 13.016C768.995 9.34666 770.36 6.27466 773.091 3.8C775.822 1.32533 779.406 0.0879974 783.843 0.0879974C788.28 0.0879974 791.864 1.28266 794.595 3.672C797.326 5.976 798.691 8.96266 798.691 12.632C798.691 16.472 797.326 19.672 794.595 22.232C791.95 24.7067 788.366 25.944 783.843 25.944ZM831.136 103L802.592 33.624H827.552L850.336 91.608H837.792L861.728 33.624H884.896L856.224 103H831.136ZM925.66 104.152C917.468 104.152 910.3 102.616 904.156 99.544C898.097 96.3867 893.361 92.12 889.948 86.744C886.62 81.2827 884.956 75.096 884.956 68.184C884.956 61.272 886.577 55.128 889.82 49.752C893.148 44.2907 897.713 40.0667 903.516 37.08C909.319 34.008 915.847 32.472 923.1 32.472C929.927 32.472 936.156 33.88 941.788 36.696C947.42 39.4267 951.9 43.48 955.228 48.856C958.556 54.232 960.22 60.76 960.22 68.44C960.22 69.2933 960.177 70.2747 960.092 71.384C960.007 72.4933 959.921 73.5173 959.836 74.456H904.924V61.656H946.908L937.692 65.24C937.777 62.0827 937.18 59.352 935.9 57.048C934.705 54.744 932.999 52.952 930.78 51.672C928.647 50.392 926.129 49.752 923.228 49.752C920.327 49.752 917.767 50.392 915.548 51.672C913.415 52.952 911.751 54.7867 910.556 57.176C909.361 59.48 908.764 62.2107 908.764 65.368V69.08C908.764 72.4933 909.447 75.4373 910.812 77.912C912.263 80.3867 914.311 82.3067 916.956 83.672C919.601 84.952 922.759 85.592 926.428 85.592C929.841 85.592 932.743 85.1227 935.132 84.184C937.607 83.16 940.039 81.624 942.428 79.576L955.228 92.888C951.9 96.5573 947.804 99.3733 942.94 101.336C938.076 103.213 932.316 104.152 925.66 104.152ZM981.673 104.152C977.577 104.152 974.121 102.787 971.305 100.056C968.489 97.3253 967.081 93.8693 967.081 89.688C967.081 85.336 968.489 81.88 971.305 79.32C974.121 76.6747 977.577 75.352 981.673 75.352C985.769 75.352 989.225 76.6747 992.041 79.32C994.857 81.88 996.265 85.336 996.265 89.688C996.265 93.8693 994.857 97.3253 992.041 100.056C989.225 102.787 985.769 104.152 981.673 104.152Z" fill="white"/>
</svg>
